<svg width="28" height="28" viewBox="0 0 28 28" fill="none" xmlns="http://www.w3.org/2000/svg">
<path d="M0 3.81818C0 1.70946 1.70946 0 3.81818 0H8.90909C11.0178 0 12.7273 1.70946 12.7273 3.81818V12.7273H3.81818C1.70946 12.7273 0 11.0178 0 8.90909V3.81818Z" fill="white"/>
<path d="M28 3.81818C28 1.70946 26.2905 0 24.1818 0H19.0909C16.9822 0 15.2727 1.70946 15.2727 3.81818V12.7273H24.1818C26.2905 12.7273 28 11.0178 28 8.90909V3.81818Z" fill="white"/>
<path d="M0 24.1818C0 26.2905 1.70946 28 3.81818 28H8.90909C11.0178 28 12.7273 26.2905 12.7273 24.1818V15.2727H3.81818C1.70946 15.2727 0 16.9822 0 19.0909V24.1818Z" fill="white"/>
</svg>
